<?xml version="1.0" standalone="no"?>
<!DOCTYPE svg PUBLIC "-//W3C//DTD SVG 20010904//EN"
 "http://www.w3.org/TR/2001/REC-SVG-20010904/DTD/svg10.dtd">
<svg version="1.0" xmlns="http://www.w3.org/2000/svg"
 width="300.000000pt" height="193.000000pt" viewBox="0 0 300.000000 193.000000"
 preserveAspectRatio="xMidYMid meet">
<metadata>
Created by potrace 1.10, written by Peter Selinger 2001-2011
</metadata>
<g transform="translate(0.000000,193.000000) scale(0.050000,-0.050000)"
fill="#000000" stroke="none">
<path d="M3030 3760 c-7 -12 -12 -149 -10 -306 2 -156 3 -291 2 -301 -1 -9
-33 3 -71 26 l-69 43 -212 -124 -211 -123 5 -241 6 -241 180 -106 c245 -145
221 -144 448 -13 l201 116 1 571 0 570 -65 37 c-36 21 -94 55 -128 75 -43 26
-68 31 -77 17z m-81 -894 c101 -48 106 -196 9 -254 -167 -99 -316 141 -153
246 78 50 60 49 144 8z"/>
<path d="M4910 3124 l-200 -116 0 -258 0 -259 80 -45 c185 -105 230 -54 230
262 0 213 -3 234 -35 228 -30 -6 -36 -36 -41 -231 -6 -247 -10 -254 -125 -194
l-59 30 0 208 0 208 177 101 c98 56 184 102 191 102 10 0 293 -155 347 -190
14 -9 23 -403 10 -421 -56 -80 -348 -210 -416 -186 -117 42 -137 -10 -24 -65
l91 -44 207 121 207 121 6 251 5 250 -194 114 c-251 148 -226 147 -457 13z"/>
<path d="M5654 3225 c-4 -8 4 -37 19 -65 23 -44 26 -45 27 -10 0 28 5 32 17
15 28 -44 100 -47 113 -4 17 51 -6 87 -37 61 -15 -12 -35 -13 -54 -1 -35 22
-74 24 -85 4z"/>
<path d="M415 3107 l-195 -111 0 -318 c0 -175 5 -318 12 -318 6 0 69 32 140
72 l128 71 0 169 0 169 70 33 c65 31 75 31 140 0 l70 -33 0 -168 0 -168 121
-73 c67 -39 130 -72 140 -72 11 0 19 135 19 316 l0 315 -199 115 c-241 138
-208 137 -446 1z"/>
<path d="M1610 3146 c-66 -39 -154 -92 -195 -119 l-75 -48 0 -237 0 -238 211
-122 210 -123 210 122 209 123 0 243 -1 243 -199 115 c-232 134 -216 132 -370
41z m188 -149 c-20 -13 -10 -17 32 -13 42 4 58 -2 54 -21 -4 -18 6 -24 25 -16
33 12 33 11 39 -141 4 -124 32 -130 32 -6 0 59 4 102 10 97 19 -19 27 -277 9
-277 -11 0 -19 16 -19 35 -1 29 -4 30 -19 6 -10 -16 -14 -36 -8 -45 5 -9 -1
-16 -13 -16 -14 0 -18 -16 -9 -42 12 -38 9 -39 -32 -17 -38 20 -43 19 -34 -5
14 -36 -136 -48 -177 -14 -14 12 -44 16 -66 9 -29 -10 -40 -4 -40 23 -1 20 -5
96 -10 170 -11 159 8 243 57 253 23 4 31 -1 21 -17 -10 -15 -1 -15 27 3 27 16
34 30 19 39 -12 8 12 14 54 14 53 0 68 -5 48 -19z m-266 -296 c1 -44 -6 -75
-15 -69 -21 13 -23 148 -2 148 8 0 16 -36 17 -79z"/>
<path d="M3780 3101 l-190 -115 -6 -241 -5 -241 212 -121 212 -121 129 71
c159 88 160 85 -72 213 l-190 104 -6 91 c-6 87 -2 94 65 130 106 57 211 0 211
-114 0 -94 -6 -93 152 -5 126 70 128 73 128 155 l-1 83 -199 115 c-239 138
-206 138 -440 -4z"/>
<path d="M5100 2900 c-86 -86 -38 -157 123 -182 117 -19 126 -25 110 -67 -16
-43 -189 -43 -206 -1 -18 48 -71 37 -63 -14 15 -104 264 -123 328 -26 56 86
-15 170 -144 170 -81 0 -136 37 -107 71 35 42 134 36 174 -11 40 -47 85 -52
85 -10 0 61 -76 110 -170 110 -63 0 -102 -12 -130 -40z"/>
<path d="M3965 2807 c-34 -14 -32 -97 4 -126 37 -31 111 6 111 56 0 63 -52 95
-115 70z"/>
<path d="M2840 1950 l0 -153 -135 5 -135 5 -6 -93 -6 -94 140 0 140 0 6 -145
6 -145 90 0 90 0 -3 145 -2 145 148 0 149 0 -6 93 -6 94 -143 -5 -143 -5 3
147 3 146 -95 6 -95 6 0 -152z"/>
<path d="M1171 998 c-276 -242 -3 -725 304 -538 64 39 144 167 120 192 -21 20
-55 -12 -55 -51 0 -21 -28 -61 -62 -89 -148 -125 -376 -9 -378 193 0 8 113 15
250 15 l250 0 0 62 c0 232 -261 364 -429 216z m285 -9 c52 -37 104 -130 104
-188 0 -39 -11 -41 -230 -41 -247 0 -247 0 -202 107 56 136 220 197 328 122z"/>
<path d="M1640 1049 c0 -6 49 -75 108 -154 l108 -143 -111 -144 c-104 -135
-118 -161 -96 -173 5 -3 58 60 118 140 l110 144 105 -134 c58 -74 108 -138
111 -142 2 -4 14 -4 26 0 11 4 -32 75 -97 159 l-119 151 108 139 c60 76 108
145 109 153 1 44 -48 1 -131 -115 -51 -71 -99 -130 -107 -130 -8 0 -57 59
-110 130 -82 113 -132 157 -132 119z"/>
<path d="M2200 661 c0 -220 -1 -408 -1 -416 -1 -7 8 -17 20 -21 14 -5 21 49
21 157 l0 165 48 -52 c120 -129 334 -86 405 80 141 333 -204 662 -418 399
l-34 -43 -1 54 c0 29 -9 59 -20 66 -13 8 -20 -126 -20 -389z m396 309 c137
-115 113 -410 -39 -492 -195 -104 -394 167 -296 404 55 132 229 178 335 88z"/>
<path d="M2840 740 c0 -210 7 -318 20 -310 11 7 20 104 20 222 0 260 50 366
174 368 24 0 49 9 56 20 39 64 -169 -3 -215 -69 -8 -12 -15 -2 -15 23 0 24 -9
49 -20 56 -13 8 -20 -100 -20 -310z"/>
<path d="M3231 998 c-281 -246 5 -739 310 -533 70 47 133 164 99 185 -10 6
-31 -18 -46 -54 -89 -213 -380 -172 -426 60 l-13 64 255 0 255 0 -12 90 c-32
231 -258 332 -422 188z m287 -11 c25 -18 59 -62 74 -99 53 -127 52 -128 -202
-128 -247 0 -247 0 -202 107 57 137 220 197 330 120z"/>
<path d="M3813 1019 c-131 -104 -64 -227 157 -290 196 -55 246 -142 135 -230
-111 -87 -307 -26 -332 103 -7 34 -21 55 -31 49 -28 -17 10 -132 58 -180 64
-64 278 -59 349 8 118 111 41 236 -180 294 -178 46 -232 140 -125 216 105 73
296 16 296 -89 0 -22 9 -40 20 -40 22 0 27 60 8 109 -35 91 -262 123 -355 50z"/>
<path d="M4369 1011 c-111 -111 -56 -223 131 -270 196 -49 244 -94 211 -197
-44 -139 -371 -88 -371 57 0 20 -9 42 -20 49 -41 26 -19 -109 27 -162 72 -84
259 -94 349 -18 129 108 71 246 -123 291 -211 50 -283 147 -169 228 105 73
296 16 296 -89 0 -22 13 -40 30 -40 55 0 20 102 -57 165 -69 55 -242 47 -304
-14z"/>
</g>
</svg>
